<svg xmlns="http://www.w3.org/2000/svg" viewBox="421.59 173.07 199.47 202.43"><path d="M580.061 174.186 C578.458 174.040 576.932 173.933 575.319 173.932 C563.385 173.923 551.944 178.694 543.551 187.181 C529.299 201.493 530.415 217.216 530.422 235.419 L530.463 263.057 L569.121 263.066 C581.860 263.231 591.329 262.304 602.078 254.143 C611.519 247.024 617.739 236.439 619.364 224.724 C621.056 212.882 617.918 200.857 610.655 191.354 C602.976 181.378 592.427 175.820 580.061 174.186 Z" fill="#FFFFFF"/><path d="M472.614 174.196 C462.161 173.068 451.643 175.629 442.877 181.436 C433.209 187.860 426.124 198.630 423.886 210.000 C421.591 221.480 423.929 233.403 430.391 243.164 C438.240 254.828 448.650 260.218 462.027 262.823 C465.767 263.305 475.261 263.077 479.433 263.076 L512.390 263.055 C512.284 252.899 512.453 242.724 512.400 232.577 C512.361 225.025 512.834 216.409 511.262 209.082 C509.900 202.764 507.189 196.813 503.316 191.638 C495.689 181.558 485.012 175.893 472.614 174.196 Z" fill="#FFFFFF"/><path d="M512.425 281.444 L482.387 281.409 C474.904 281.405 464.253 280.976 457.255 282.616 C449.939 284.354 443.176 287.902 437.589 292.936 C429.363 300.440 423.480 312.594 423.125 323.734 C422.682 337.614 426.722 347.195 435.850 357.195 C454.347 374.446 481.129 375.501 499.356 357.336 C505.097 351.528 509.129 344.252 511.010 336.304 C512.856 328.713 512.412 318.362 512.419 310.340 L512.425 281.444 Z" fill="#FFFFFF"/><path d="M604.592 292.291 C603.653 292.716 598.260 301.288 596.697 302.931 C575.999 324.694 549.521 321.862 530.592 299.445 C530.354 321.031 527.407 338.720 542.373 355.966 C549.892 364.936 563.109 370.426 574.678 370.587 C586.664 370.651 598.188 365.965 606.731 357.555 C615.054 349.480 619.762 338.383 619.787 326.785 C619.894 311.991 614.561 302.423 604.592 292.291 Z" fill="#FFFFFF"/><path d="M530.859 285.322 C527.880 290.590 541.143 301.760 545.015 304.287 C553.077 309.579 562.915 311.436 572.351 309.446 C583.230 307.150 591.108 300.606 597.056 291.483 C597.929 290.197 598.409 289.246 598.215 287.810 C597.272 287.139 597.618 287.202 596.539 287.106 C595.081 288.872 591.668 293.288 590.172 294.571 C582.620 301.043 573.178 304.498 563.278 303.963 C547.926 303.133 540.386 295.708 530.859 285.322 Z" fill="#FFFFFF"/><path d="M540.451 281.477 L536.175 281.355 C537.508 283.505 539.039 285.524 540.750 287.386 C553.428 301.100 573.304 301.216 586.796 288.589 C587.836 287.497 590.623 284.939 590.436 283.368 C588.449 282.823 582.394 287.837 580.522 288.815 C565.207 296.816 551.728 292.379 540.451 281.477 Z" fill="#FFFFFF"/><path d="M579.828 281.537 C570.006 281.148 558.568 281.422 548.627 281.420 L551.783 283.208 C559.576 287.673 573.044 287.985 579.828 281.537 Z" fill="#FFFFFF"/></svg>